<?xml version="1.0" encoding="UTF-8"?>
<svg width="40px" height="40px" viewBox="0 0 40 40" version="1.1" xmlns="http://www.w3.org/2000/svg" xmlns:xlink="http://www.w3.org/1999/xlink">
    <!-- Generator: Sketch 54.1 (76490) - https://sketchapp.com -->
    <title>userpic</title>
    <desc>Created with Sketch.</desc>
    <defs>
        <circle id="path-1" cx="19.9098413" cy="19.9100529" r="19.9098413"></circle>
    </defs>
    <g id="Page-1" stroke="none" stroke-width="1" fill="none" fill-rule="evenodd">
        <g id="userpic">
            <g id="SVGID_1_" fill="#EAE9E9" fill-rule="nonzero">
                <circle id="path-1" cx="19.9098413" cy="19.9100529" r="19.9098413"></circle>
            </g>
            <g id="Group-3-Clipped">
                <mask id="mask-2" fill="white">
                    <use xlink:href="#path-1"></use>
                </mask>
                <g id="path-1"></g>
                <g id="Group-3" mask="url(#mask-2)">
                    <g transform="translate(8.000000, 2.000000)" id="Path">
                        <g transform="translate(0.253968, 0.328042)">
                            <path d="M18.5625397,30.2531217 L18.5583069,30.2531217 C18.1263492,29.9261376 17.6740741,29.6353439 17.197672,29.3729101 C17.1853968,29.3648677 17.1733333,29.3568254 17.1572487,29.3528042 C14.904127,28.1092063 13.3779894,25.7106878 13.3779894,22.9530159 L9.96613757,22.9367196 C9.96613757,25.7026455 8.42772487,28.1132275 6.15449735,29.3525926 C6.15449735,29.3525926 6.15047619,29.3525926 6.14645503,29.3566138 C5.66582011,29.6190476 5.20571429,29.9138624 4.76952381,30.2368254 C1.94306878,32.3405291 0.114074074,35.7039153 0.114074074,39.4994709 L23.197672,39.4994709 C23.1978836,35.7121693 21.3769312,32.3566138 18.5625397,30.2531217 Z" fill="#FFFFFF" fill-rule="nonzero"></path>
                            <path d="M23.197672,39.4982011 L0.113862434,39.4982011 C0.113862434,35.7026455 1.94285714,32.3392593 4.76931217,30.2355556 C5.20550265,29.9125926 5.66560847,29.6177778 6.14603175,29.3553439 C6.15026455,29.3513228 6.15428571,29.3513228 6.15428571,29.3513228 C6.52571429,29.1453968 6.8810582,28.9111111 7.20804233,28.6446561 C8.33862434,29.8035979 9.91746032,30.522328 11.6658201,30.522328 C13.4101587,30.522328 14.9849735,29.8035979 16.1153439,28.6486772 C16.4383069,28.9151323 16.7898413,29.149418 17.157037,29.3513228 C17.1731217,29.3553439 17.1853968,29.3633862 17.1974603,29.3714286 C17.6738624,29.6338624 18.1261376,29.9246561 18.5580952,30.2516402 L18.562328,30.2516402 C21.3767196,32.3553439 23.197672,35.7106878 23.197672,39.4982011 Z" fill="#1C4CA0" fill-rule="nonzero"></path>
                            <path d="M2.79724868,5.73354497 L2.79724868,14.7993651 C2.79724868,20.9318519 8.18074074,25.9030688 11.6560847,25.9030688 C15.1310053,25.9030688 20.5149206,20.9318519 20.5149206,14.7993651 L20.5149206,5.73354497 L2.79724868,5.73354497 Z" fill="#FFFFFF" fill-rule="nonzero"></path>
                            <path d="M19.071746,4.06497354 C17.1409524,1.64740741 14.2099471,0.101798942 10.9314286,0.101798942 C5.10687831,0.101798942 0.38962963,4.96359788 0.38962963,10.9591534 C0.38962963,14.1413757 1.71597884,17.0027513 3.83386243,18.9870899 C3.28825397,17.6177778 2.98349206,16.082963 2.98349206,14.4622222 C2.98349206,11.8575661 3.77502646,9.47216931 5.09079365,7.63767196 C6.48677249,8.25820106 8.74920635,8.48275132 11.2306878,8.1405291 C13.6910053,7.80359788 15.7875132,6.99068783 16.9695238,6.0226455 C19.1250794,7.92656085 20.5263492,10.9966138 20.5263492,14.4622222 C20.5263492,16.2378836 20.1625397,17.9066667 19.5100529,19.3720635 C21.5904762,18.5108995 23.1202116,15.4410582 23.1202116,11.7879365 C23.1202116,7.87830688 21.3659259,4.65333333 19.071746,4.06497354 Z" fill="#333333" fill-rule="nonzero"></path>
                        </g>
                    </g>
                </g>
            </g>
        </g>
    </g>
</svg>